<?xml version="1.0" standalone="no"?>
<!DOCTYPE svg PUBLIC "-//W3C//DTD SVG 20010904//EN"
 "http://www.w3.org/TR/2001/REC-SVG-20010904/DTD/svg10.dtd">
<svg version="1.0" xmlns="http://www.w3.org/2000/svg"
 width="16.000000pt" height="16.000000pt" viewBox="0 0 16.000000 16.000000"
 preserveAspectRatio="xMidYMid meet">
<metadata>
Created by potrace 1.11, written by Peter Selinger 2001-2013
</metadata>
<g transform="translate(0.000000,16.000000) scale(0.001600,-0.001600)"
fill="#000000" stroke="none">
<path d="M4299 9585 c-2 -1 -44 -6 -94 -9 -101 -8 -143 -13 -301 -35 -44 -6
-91 -14 -105 -16 -13 -3 -37 -7 -54 -10 -16 -3 -50 -10 -75 -15 -25 -5 -56
-12 -70 -14 -50 -8 -238 -58 -370 -98 -532 -161 -1092 -458 -1515 -803 -295
-240 -631 -590 -811 -845 -21 -30 -41 -57 -45 -60 -14 -12 -182 -276 -248
-390 -76 -131 -190 -360 -235 -470 -15 -36 -33 -78 -41 -95 -47 -106 -183
-528 -201 -625 -3 -14 -9 -41 -14 -60 -5 -19 -16 -71 -25 -115 -9 -44 -18 -87
-20 -95 -1 -8 -8 -51 -15 -95 -7 -44 -14 -87 -15 -95 -2 -8 -6 -44 -10 -80 -4
-36 -8 -76 -11 -90 -19 -124 -26 -611 -11 -810 14 -189 21 -249 52 -440 98
-605 345 -1228 702 -1774 36 -54 69 -104 74 -110 5 -6 34 -45 65 -86 30 -41
60 -82 67 -90 303 -378 508 -576 917 -888 267 -203 726 -451 1080 -582 77 -29
291 -100 315 -106 6 -1 45 -12 87 -24 43 -11 85 -23 95 -24 10 -2 36 -9 58
-14 38 -10 204 -45 270 -57 17 -3 53 -8 80 -11 28 -3 52 -7 55 -9 3 -2 37 -6
75 -10 39 -3 77 -8 85 -10 102 -26 734 -27 935 -1 17 2 59 7 95 11 85 9 188
25 335 54 1036 201 2002 794 2677 1642 405 510 710 1137 863 1774 47 194 78
364 95 515 6 52 13 105 15 118 24 148 25 702 1 897 -2 17 -7 62 -11 100 -4 39
-18 135 -31 215 -14 80 -27 154 -29 165 -1 11 -13 61 -25 110 -12 50 -23 98
-25 107 -19 87 -102 353 -155 493 -77 204 -195 458 -285 615 -21 36 -45 79
-55 96 -10 17 -24 42 -32 54 -22 38 -163 251 -202 305 -42 58 -55 46 131 122
76 30 187 75 247 99 59 24 111 42 115 40 4 -3 61 -120 126 -260 66 -141 123
-256 126 -256 3 0 30 33 60 73 29 39 91 124 138 187 47 63 135 183 196 265
425 575 604 819 602 821 -1 1 -38 4 -82 8 -44 3 -96 8 -115 11 -19 2 -69 6
-110 10 -41 3 -93 7 -115 10 -74 8 -150 16 -200 20 -27 3 -79 7 -115 11 -100
9 -139 13 -210 19 -36 2 -81 7 -100 10 -19 2 -66 7 -105 10 -38 3 -88 8 -110
10 -22 2 -71 7 -110 10 -38 3 -83 8 -100 10 -16 2 -68 6 -115 10 -47 4 -93 9
-103 11 -10 1 -16 0 -13 -4 2 -4 15 -32 29 -62 45 -99 154 -334 181 -389 14
-30 23 -58 19 -62 -9 -9 -603 -251 -639 -261 -6 -2 -67 51 -135 117 -595 577
-1285 965 -2072 1165 -239 61 -457 99 -657 115 -41 4 -86 9 -100 12 -27 6
-616 14 -621 8z m566 -519 c39 -4 95 -9 125 -11 30 -3 69 -7 85 -10 17 -3 48
-7 70 -10 419 -60 866 -203 1255 -403 80 -41 150 -78 155 -82 6 -4 33 -20 60
-35 140 -77 397 -261 560 -401 141 -120 178 -156 168 -163 -4 -4 -44 -22 -88
-41 -44 -18 -94 -39 -112 -46 -17 -8 -34 -14 -38 -14 -4 0 -21 -7 -38 -15 -18
-8 -144 -60 -282 -116 -137 -55 -353 -143 -480 -194 -126 -51 -365 -148 -530
-214 -165 -67 -309 -126 -320 -131 -24 -11 -358 -146 -500 -202 -55 -22 -113
-46 -130 -53 -16 -7 -160 -66 -320 -130 -159 -64 -398 -161 -530 -215 -132
-54 -382 -155 -555 -225 -173 -70 -328 -133 -345 -140 -16 -8 -158 -65 -315
-128 -291 -117 -323 -130 -375 -153 -112 -47 -217 -86 -221 -81 -4 3 -6 258
-6 567 l0 560 -256 -2 -257 -3 0 -942 c0 -651 3 -943 10 -943 9 0 615 242 700
279 25 11 22 10 340 138 343 138 355 143 390 158 17 7 100 41 185 75 85 34
169 68 185 75 26 11 299 122 535 217 41 17 89 36 105 43 28 12 300 122 745
301 102 41 194 79 205 84 11 5 45 19 75 31 30 12 69 27 85 34 17 7 111 45 210
85 99 40 194 78 210 85 17 7 89 37 160 65 72 29 144 58 160 65 17 7 53 22 80
33 28 11 208 84 400 162 193 78 422 171 510 207 88 35 174 70 190 77 17 7 73
30 125 51 52 20 109 43 125 50 106 46 335 135 346 135 22 -1 193 -242 310
-438 74 -124 229 -421 229 -439 0 -4 6 -19 13 -33 12 -23 80 -189 83 -200 0
-3 6 -17 12 -32 26 -63 100 -309 136 -458 12 -48 56 -273 62 -315 3 -27 8 -58
10 -69 2 -10 6 -51 10 -90 3 -39 8 -73 9 -76 7 -12 18 -261 18 -390 0 -120 -9
-312 -17 -395 -14 -127 -18 -162 -21 -175 -2 -8 -7 -35 -10 -60 -6 -51 -10
-75 -32 -180 -22 -108 -23 -113 -27 -136 -7 -36 -46 -174 -83 -294 -98 -316
-248 -641 -436 -947 -54 -87 -203 -299 -243 -346 -10 -12 -31 -38 -45 -57 -15
-19 -36 -46 -48 -59 l-21 -24 0 1389 c-1 3423 1 3104 -18 3097 -9 -3 -35 -14
-57 -23 -22 -10 -74 -31 -115 -48 -261 -104 -680 -274 -705 -286 -16 -8 -55
-24 -85 -36 l-55 -22 -1 -546 c-11 -4149 -13 -4394 -31 -4408 -52 -38 -510
-254 -540 -254 -4 0 -7 190 -6 422 1 233 4 1361 8 2506 l6 2084 -22 -7 c-17
-6 -663 -267 -957 -387 l-53 -22 6 -495 c3 -273 8 -638 10 -811 2 -173 7 -542
10 -820 3 -278 8 -647 10 -820 3 -173 7 -522 10 -775 3 -253 7 -610 10 -792
l4 -333 -32 -1 c-18 0 -41 -2 -52 -4 -72 -14 -564 -29 -592 -18 -10 4 -13 473
-13 2300 0 2182 -1 2295 -17 2288 -10 -4 -38 -15 -63 -25 -76 -30 -203 -82
-235 -95 -47 -21 -468 -192 -595 -242 -63 -25 -117 -47 -119 -49 -3 -3 -2
-283 4 -1089 2 -231 6 -800 10 -1265 3 -465 8 -1024 9 -1242 l4 -398 -22 4
c-98 21 -374 132 -571 231 l-100 50 0 1713 c0 1173 -3 1712 -10 1712 -10 0
-354 -137 -400 -160 -11 -5 -67 -28 -125 -51 -58 -22 -118 -47 -135 -54 -16
-7 -73 -30 -125 -51 -52 -20 -102 -40 -110 -45 -8 -4 -40 -17 -71 -29 l-55
-21 2 -157 c7 -576 16 -1268 19 -1442 5 -321 6 -652 3 -656 -9 -8 -299 335
-381 451 -43 61 -172 257 -191 290 -9 17 -35 62 -57 100 -209 364 -401 900
-463 1295 -8 51 -34 238 -41 290 -26 209 -26 638 0 855 4 29 8 67 20 153 5 37
26 164 41 247 23 125 142 532 189 640 7 17 25 62 40 100 42 105 165 357 230
470 54 92 191 309 215 338 5 6 50 65 100 130 49 64 103 132 119 150 15 17 52
59 81 92 86 97 277 280 395 380 483 407 1059 697 1680 845 106 26 95 24 215
44 52 9 105 18 117 20 12 3 53 8 90 11 37 4 77 9 88 11 11 3 74 7 140 10 66 4
121 8 122 9 6 4 383 -3 448 -9z"/>
</g>
</svg>
